Coordinates
version=1
nRows=21
nColumns=22
inDegrees=yes

Units are S.I. units (second, meters, Newtons, ...)
If the header above contains a line with 'inDegrees', this indicates whether rotational values are in degrees (yes) or radians (no).

endheader
time	pelvis_tilt	pelvis_list	pelvis_rotation	pelvis_tx	pelvis_ty	pelvis_tz	hip_flexion_r	hip_adduction_r	hip_rotation_r	knee_angle_r	ankle_angle_r	subtalar_angle_r	hip_flexion_l	hip_adduction_l	hip_rotation_l	knee_angle_l	ankle_angle_l	subtalar_angle_l	lumbar_extension	lumbar_bending	lumbar_rotation
      0.01000000	     -5.33599634	     -2.58058712	      0.06659640	      1.10628216	      0.94281925	     -0.28076108	      8.22060390	      2.12454811	     -5.79265844	    -14.19187576	     11.27308937	     -2.17569788	      8.13231228	     -4.10552248	     -3.28751827	    -13.29355264	     10.63065569	     -2.52356087	     -1.92287196	      0.16079501	     -0.58537756
      0.02000000	     -5.34991324	     -2.57698767	      0.08698875	      1.10627856	      0.94280001	     -0.28077890	      8.22233128	      2.11878775	     -5.82444225	    -14.16988799	     11.27966698	     -2.18437483	      8.13845120	     -4.10227605	     -3.31211968	    -13.26681326	     10.61663569	     -2.51779752	     -1.89585808	      0.15724613	     -0.61856493
      0.03000000	     -5.38316512	     -2.56221759	      0.13123745	      1.10624474	      0.94275538	     -0.28085049	      8.25852384	      2.09227722	     -5.90890073	    -14.17124222	     11.28050032	     -2.20674506	      8.17106407	     -4.07968610	     -3.28928857	    -13.24023414	     10.57464386	     -2.50440569	     -1.84848728	      0.14116601	     -0.66323607
      0.04000000	     -5.40487028	     -2.55853733	      0.15676578	      1.10627441	      0.94272944	     -0.28089122	      8.26733169	      2.08528712	     -5.93563396	    -14.15252696	     11.28556909	     -2.21068853	      8.17278223	     -4.07403668	     -3.30813616	    -13.19325343	     10.57488277	     -2.50515129	     -1.80360999	      0.13935270	     -0.70205155
      0.05000000	     -5.44748892	     -2.54169936	      0.21816070	      1.10630149	      0.94267645	     -0.28101065	      8.30198289	      2.05329071	     -6.02741617	    -14.14340188	     11.28949455	     -2.21910497	      8.21209476	     -4.04369846	     -3.25436142	    -13.16340596	     10.53123176	     -2.49914768	     -1.73263718	      0.12377517	     -0.77131550
      0.06000000	     -5.47971580	     -2.53689717	      0.26840512	      1.10638791	      0.94263553	     -0.28110787	      8.31468909	      2.03902761	     -6.08853944	    -14.12125420	     11.29874923	     -2.22071986	      8.23855260	     -4.02953628	     -3.21292351	    -13.14174487	     10.52448697	     -2.50480548	     -1.66348310	      0.12232444	     -0.83920307
      0.07000000	     -5.50226149	     -2.53386685	      0.31455841	      1.10650364	      0.94260942	     -0.28120391	      8.31538503	      2.02725927	     -6.14413904	    -14.09864940	     11.30147255	     -2.21864681	      8.25646504	     -4.01673085	     -3.16059709	    -13.13101703	     10.51658255	     -2.50783157	     -1.60134098	      0.12382542	     -0.90783289
      0.08000000	     -5.52265426	     -2.53496310	      0.35978797	      1.10662616	      0.94258595	     -0.28129814	      8.31232930	      2.01981620	     -6.20228333	    -14.07421497	     11.30344491	     -2.21436487	      8.27695500	     -4.00791567	     -3.09339197	    -13.13054124	     10.51498256	     -2.51167855	     -1.53921199	      0.12970610	     -0.98091760
      0.09000000	     -5.54573906	     -2.54109595	      0.39880420	      1.10672637	      0.94255680	     -0.28138594	      8.31679341	      2.01822103	     -6.25990967	    -14.05349543	     11.30127779	     -2.20792888	      8.30356627	     -4.00448866	     -3.02631385	    -13.13601130	     10.51675014	     -2.51709043	     -1.47505197	      0.14166185	     -1.05403809
      0.10000000	     -5.55802986	     -2.54548399	      0.40949900	      1.10679459	      0.94254187	     -0.28143162	      8.31843840	      2.01957267	     -6.27849130	    -14.04214579	     11.30081087	     -2.20523660	      8.30781122	     -4.00463819	     -3.01157134	    -13.12425775	     10.52312148	     -2.52109406	     -1.42633400	      0.15292198	     -1.10626887
      0.11000000	     -5.57955967	     -2.56627553	      0.43005994	      1.10674292	      0.94250514	     -0.28149514	      8.34595477	      2.03561948	     -6.31394222	    -14.04574012	     11.28896988	     -2.19880798	      8.34412920	     -4.01756527	     -2.94512069	    -13.13741046	     10.52654423	     -2.53055839	     -1.38139995	      0.18378877	     -1.17998904
      0.12000000	     -5.57406970	     -2.56734965	      0.40835117	      1.10660984	      0.94250924	     -0.28150631	      8.35200561	      2.03567221	     -6.31742807	    -14.04470589	     11.28833205	     -2.19853479	      8.34574504	     -4.01544422	     -2.94008481	    -13.14383008	     10.52641818	     -2.53131748	     -1.38121468	      0.19067836	     -1.18688733
      0.13000000	     -5.55653879	     -2.58764051	      0.38001965	      1.10630308	      0.94252049	     -0.28150697	      8.38937321	      2.05590049	     -6.29228740	    -14.10553904	     11.27353332	     -2.19515015	      8.35872558	     -4.03579196	     -2.93117553	    -13.17472181	     10.53036306	     -2.54181979	     -1.41973340	      0.22284463	     -1.20115985
      0.14000000	     -5.53360445	     -2.61498964	      0.30611160	      1.10589040	      0.94253840	     -0.28144940	      8.43259082	      2.09126363	     -6.21418029	    -14.16708056	     11.25373066	     -2.18464854	      8.37792746	     -4.07309192	     -2.99187039	    -13.22816943	     10.55749840	     -2.58185136	     -1.47999636	      0.26577549	     -1.14581615
      0.15000000	     -5.47359654	     -2.62221476	      0.21190167	      1.10538303	      0.94261966	     -0.28138953	      8.45513380	      2.10628136	     -6.10008583	    -14.25004475	     11.23997793	     -2.17673166	      8.35454371	     -4.08984877	     -3.07601950	    -13.27130212	     10.56061275	     -2.60824456	     -1.60224080	      0.28935771	     -1.05854548
      0.16000000	     -5.38884423	     -2.62400655	      0.11001031	      1.10483479	      0.94274664	     -0.28133678	      8.45640260	      2.11562216	     -5.97091210	    -14.33751710	     11.22521410	     -2.16969357	      8.30575608	     -4.10209519	     -3.17433947	    -13.31380887	     10.56054111	     -2.62662272	     -1.76334655	      0.31005245	     -0.95318776
      0.17000000	     -5.29675191	     -2.62375239	      0.01661392	      1.10430588	      0.94288960	     -0.28130833	      8.44407382	      2.12086743	     -5.84658147	    -14.41786401	     11.21021140	     -2.16292618	      8.24745255	     -4.11052238	     -3.27166509	    -13.35245230	     10.55844228	     -2.63750272	     -1.93172589	      0.33038366	     -0.84625871
      0.18000000	     -5.21310299	     -2.62354631	     -0.06017864	      1.10385995	      0.94302303	     -0.28129111	      8.42421985	      2.12468718	     -5.74411862	    -14.48068917	     11.19611765	     -2.15608376	      8.19141940	     -4.11746407	     -3.34798404	    -13.38392004	     10.55453628	     -2.64160992	     -2.07755062	      0.34785643	     -0.76188344
      0.19000000	     -5.14525297	     -2.62607723	     -0.11592662	      1.10352006	      0.94313278	     -0.28128761	      8.40445680	      2.12995951	     -5.66949609	    -14.52769072	     11.18404090	     -2.14908722	      8.14418849	     -4.12487673	     -3.40499137	    -13.40782519	     10.55298083	     -2.64193342	     -2.18811855	      0.36421260	     -0.70184735
      0.20000000	     -5.11660706	     -2.62922365	     -0.13680893	      1.10327235	      0.94317656	     -0.28132161	      8.41366494	      2.12985661	     -5.64320667	    -14.56815575	     11.17486430	     -2.14739470	      8.13888521	     -4.12698916	     -3.40350629	    -13.43136748	     10.54680375	     -2.64006064	     -2.23407978	      0.38273264	     -0.69882542
      0.21000000	     -5.07555754	     -2.63715425	     -0.17733681	      1.10314319	      0.94323508	     -0.28128822	      8.39058408	      2.14208440	     -5.60063084	    -14.58503723	     11.17130691	     -2.13999656	      8.10026549	     -4.14346995	     -3.47151004	    -13.43707120	     10.56274143	     -2.64134161	     -2.27982872	      0.39837278	     -0.65215613
